<mxfile host="app.diagrams.net" modified="2023-07-17T12:17:42.611Z" agent="Mozilla/5.0 (Windows NT 10.0; Win64; x64; rv:109.0) Gecko/20100101 Firefox/115.0" etag="JkXmgm6AIZCcJ_TFFRNl" version="21.6.2" type="device">
  <diagram name="Page-1" id="mwVtoDoxp52T2dSM8vgW">
    <mxGraphModel dx="1972" dy="753" grid="1" gridSize="12" guides="1" tooltips="1" connect="1" arrows="1" fold="1" page="1" pageScale="1" pageWidth="500" pageHeight="100" math="0" shadow="0">
      <root>
        <mxCell id="0" />
        <mxCell id="1" parent="0" />
        <mxCell id="7gTQ3Tq85o7vC2CqOJdv-18" style="edgeStyle=orthogonalEdgeStyle;rounded=0;orthogonalLoop=1;jettySize=auto;html=1;fontSize=18;" parent="1" source="7gTQ3Tq85o7vC2CqOJdv-1" target="7gTQ3Tq85o7vC2CqOJdv-9" edge="1">
          <mxGeometry relative="1" as="geometry">
            <Array as="points">
              <mxPoint x="-96" y="228" />
              <mxPoint x="-96" y="116" />
            </Array>
          </mxGeometry>
        </mxCell>
        <mxCell id="7gTQ3Tq85o7vC2CqOJdv-19" style="edgeStyle=orthogonalEdgeStyle;rounded=0;orthogonalLoop=1;jettySize=auto;html=1;fontSize=18;" parent="1" source="7gTQ3Tq85o7vC2CqOJdv-1" edge="1">
          <mxGeometry relative="1" as="geometry">
            <mxPoint y="345" as="targetPoint" />
            <Array as="points">
              <mxPoint x="-96" y="228" />
              <mxPoint x="-96" y="345" />
            </Array>
          </mxGeometry>
        </mxCell>
        <mxCell id="7gTQ3Tq85o7vC2CqOJdv-1" value="&lt;font style=&quot;font-size: 18px;&quot;&gt;USER CLICK ON STATION&lt;/font&gt;" style="rounded=0;whiteSpace=wrap;html=1;fillColor=#fff2cc;strokeColor=#d6b656;" parent="1" vertex="1">
          <mxGeometry x="-350" y="182" width="160" height="100" as="geometry" />
        </mxCell>
        <mxCell id="7gTQ3Tq85o7vC2CqOJdv-8" value="STATION IS NOT LIVE" style="text;html=1;strokeColor=none;fillColor=none;align=center;verticalAlign=middle;whiteSpace=wrap;rounded=0;fontSize=18;" parent="1" vertex="1">
          <mxGeometry x="-192" y="312" width="96" height="30" as="geometry" />
        </mxCell>
        <mxCell id="7gTQ3Tq85o7vC2CqOJdv-9" value="RADIO STARTS PLAYING" style="swimlane;whiteSpace=wrap;html=1;fontSize=18;fillColor=#d5e8d4;strokeColor=#82b366;swimlaneFillColor=default;" parent="1" vertex="1">
          <mxGeometry y="50" width="348" height="132" as="geometry" />
        </mxCell>
        <mxCell id="7gTQ3Tq85o7vC2CqOJdv-11" value="&lt;div&gt;1-Spinners start moving&lt;/div&gt;&lt;div&gt;2-Audio starts playing&lt;/div&gt;&lt;div&gt;3-Stop button appears&lt;br&gt;&lt;/div&gt;" style="text;html=1;strokeColor=none;fillColor=none;spacing=5;spacingTop=-20;whiteSpace=wrap;overflow=hidden;rounded=0;fontSize=18;" parent="7gTQ3Tq85o7vC2CqOJdv-9" vertex="1">
          <mxGeometry y="36" width="228" height="156" as="geometry" />
        </mxCell>
        <mxCell id="7gTQ3Tq85o7vC2CqOJdv-12" value="STATION LIST APPEARS" style="swimlane;whiteSpace=wrap;html=1;fontSize=18;fillColor=#d5e8d4;strokeColor=#82b366;gradientColor=none;glass=0;rounded=0;shadow=0;swimlaneFillColor=default;" parent="1" vertex="1">
          <mxGeometry y="238" width="348" height="212" as="geometry" />
        </mxCell>
        <mxCell id="7gTQ3Tq85o7vC2CqOJdv-13" value="1-Remove hidden class from list" style="text;html=1;align=center;verticalAlign=middle;resizable=0;points=[];autosize=1;strokeColor=none;fillColor=none;fontSize=18;" parent="7gTQ3Tq85o7vC2CqOJdv-12" vertex="1">
          <mxGeometry x="-12" y="26" width="288" height="36" as="geometry" />
        </mxCell>
        <mxCell id="7gTQ3Tq85o7vC2CqOJdv-15" value="2-Render station play lists in the curObject" style="text;html=1;align=center;verticalAlign=middle;resizable=0;points=[];autosize=1;strokeColor=none;fillColor=none;fontSize=18;" parent="7gTQ3Tq85o7vC2CqOJdv-12" vertex="1">
          <mxGeometry x="-6" y="60" width="360" height="36" as="geometry" />
        </mxCell>
        <mxCell id="7gTQ3Tq85o7vC2CqOJdv-16" value="3-Load the curObject elements in the list" style="text;html=1;align=center;verticalAlign=middle;resizable=0;points=[];autosize=1;strokeColor=none;fillColor=none;fontSize=18;" parent="7gTQ3Tq85o7vC2CqOJdv-12" vertex="1">
          <mxGeometry x="-6" y="88" width="348" height="36" as="geometry" />
        </mxCell>
        <mxCell id="7gTQ3Tq85o7vC2CqOJdv-20" value="STATION IS LIVE" style="text;html=1;strokeColor=none;fillColor=none;align=center;verticalAlign=middle;whiteSpace=wrap;rounded=0;fontSize=18;" parent="1" vertex="1">
          <mxGeometry x="-180" y="120" width="72" height="40" as="geometry" />
        </mxCell>
        <mxCell id="7gTQ3Tq85o7vC2CqOJdv-26" style="edgeStyle=orthogonalEdgeStyle;rounded=0;orthogonalLoop=1;jettySize=auto;html=1;fontSize=18;" parent="1" source="7gTQ3Tq85o7vC2CqOJdv-22" edge="1">
          <mxGeometry relative="1" as="geometry">
            <mxPoint x="-816" y="242" as="targetPoint" />
          </mxGeometry>
        </mxCell>
        <mxCell id="7gTQ3Tq85o7vC2CqOJdv-22" value="PAGE LOADS" style="rounded=0;whiteSpace=wrap;html=1;fontSize=18;fillColor=#dae8fc;strokeColor=#6c8ebf;" parent="1" vertex="1">
          <mxGeometry x="-1152" y="188" width="180" height="108" as="geometry" />
        </mxCell>
        <mxCell id="7gTQ3Tq85o7vC2CqOJdv-28" value="Run init function" style="swimlane;whiteSpace=wrap;html=1;rounded=0;shadow=0;glass=0;sketch=0;fontSize=18;swimlaneFillColor=default;fillColor=#d5e8d4;strokeColor=#82b366;" parent="1" vertex="1">
          <mxGeometry x="-816" y="142" width="408" height="200" as="geometry" />
        </mxCell>
        <mxCell id="7gTQ3Tq85o7vC2CqOJdv-29" value="1-Load bookmarked stations in the bookmarks box" style="text;html=1;align=center;verticalAlign=middle;resizable=0;points=[];autosize=1;strokeColor=none;fillColor=none;fontSize=18;" parent="7gTQ3Tq85o7vC2CqOJdv-28" vertex="1">
          <mxGeometry x="-12" y="22" width="432" height="36" as="geometry" />
        </mxCell>
      </root>
    </mxGraphModel>
  </diagram>
</mxfile>
